<svg id="SvgjsSvg1001" width="288" height="288" xmlns="http://www.w3.org/2000/svg" version="1.1" xmlns:xlink="http://www.w3.org/1999/xlink" xmlns:svgjs="http://svgjs.com/svgjs"><defs id="SvgjsDefs1002"></defs><g id="SvgjsG1008" transform="matrix(1,0,0,1,0,0)"><svg xmlns="http://www.w3.org/2000/svg" width="288" height="288" viewBox="0 0 256 256"><path d="M128,171.99316a76,76,0,1,0-76-76A76.08614,76.08614,0,0,0,128,171.99316Zm0-144a68,68,0,1,1-68,68A68.07729,68.07729,0,0,1,128,27.99316Zm4,175.91944v24.08056h28a4,4,0,0,1,0,8H96a4,4,0,0,1,0-8h28V203.9126A107.99319,107.99319,0,0,1,51.63232,19.626a3.99992,3.99992,0,0,1,5.65723,5.65625A100,100,0,0,0,198.71045,166.7041a3.99992,3.99992,0,0,1,5.65723,5.65625A107.22225,107.22225,0,0,1,132,203.9126Z" fill="#ffffff" class="color000 svgShape"></path></svg></g></svg>